# xmcd
#
# Track frame offsets:
#	150
#	16149
#	32057
#	49500
#	62479
#	80394
#	96346
#	112877
#	129112
#	144792
#	162133
#	177895
#	195045
#	211664
#	242420
#	259310
#	289270
#	319888
#
# Disc length: 4512 seconds
#
# Revision: 0
# Processed by: cddbd v1.5.2PL0 Copyright (c) Steve Scherf et al.
# Submitted via: EasyCDDAExtractor 16.0.9.1
#
DISCID=dd119e12
DTITLE=Various Artist - Cool Zone Top Of Dance
DYEAR=2000
DGENRE=Dance
TTITLE0=Shah - Do U Wanna Get (Video Mix)
TTITLE1=Daisy Dee - Open Sesame (Video Mix)
TTITLE2=Fem@le - Lambada (F.P.C. Radio Remix)
TTITLE3=Hypetraxx - See The Day (Video Mix)
TTITLE4=DJ Mellow D - @ Night (Official Radio Mix)
TTITLE5=Melina - Don't Want You (In My Life) (Short Club Mix)
TTITLE6=Makoma - Baby Come (Radio Mix)
TTITLE7=DJ Piccolo feat. Tehmina - Spring Let Me See (The 4 Jays Mix)
TTITLE8=Beam and Yanou - Sound Of Love (Video Mix)
TTITLE9=DJ Red 5 - Que Pasa (Radio Mix)
TTITLE10=Pyramid feat. Aisha - Round and Round (Radio Mix)
TTITLE11=Gumbo - Coz (Original Mix)
TTITLE12=Silvermoon - Lily Was Here (Mix and Magic Meets Nikos Vs. Procell Radio
TTITLE12=Edit)
TTITLE13=K-Zone - Crushing Eyes (Radio Mix)
TTITLE14=Fatima vs. DJ Taylor and Flow - Salaam Aleikum (Radio Mix)
TTITLE15=Mr. Phillips - 7th Day (C.J. Stone Remix)
TTITLE16=Loco-Motion - Explosion (Radio Edit)
TTITLE17=Natascha Hagen - Sweet La La Love (Original Radio Mix)
EXTD=
EXTT0=
EXTT1=
EXTT2=
EXTT3=
EXTT4=
EXTT5=
EXTT6=
EXTT7=
EXTT8=
EXTT9=
EXTT10=
EXTT11=
EXTT12=
EXTT13=
EXTT14=
EXTT15=
EXTT16=
EXTT17=
PLAYORDER=
